<?xml version="1.0"?>
<svg xmlns="http://www.w3.org/2000/svg" xmlns:xlink="http://www.w3.org/1999/xlink" xmlns:svgjs="http://svgjs.com/svgjs" version="1.1" width="512" height="512" x="0" y="0" viewBox="0 0 24 24" style="enable-background:new 0 0 512 512" xml:space="preserve"><g><path xmlns="http://www.w3.org/2000/svg" d="M12.836.028A12,12,0,0,0,.029,12.855C.47,19.208,6.082,24,13.083,24H19a5.006,5.006,0,0,0,5-5V12.34A12.209,12.209,0,0,0,12.836.028ZM18.7,9.712l-6.793,6.707a2,2,0,0,1-2.823,0L5.3,12.715a1,1,0,0,1,1.4-1.43l3.793,3.707,6.806-6.7a1,1,0,0,1,1.4,1.424Z" fill="#0d6efd" data-original="#000000"/></g></svg>
